<svg xmlns="http://www.w3.org/2000/svg" x="0px" y="0px"
width="64" height="64"
viewBox="0 0 64 64">
<path d="M 48.265625 0.017578125 A 14.607 14.607 0 0 0 41.359375 2.1464844 L 42.400391 3.8535156 A 12.412 12.412 0 0 1 44.390625 2.8710938 L 45.726562 8.8828125 A 7.184 7.184 0 0 0 44.384766 9.8378906 L 37.945312 8.4082031 A 13.66 13.66 0 0 1 39.177734 6.640625 L 37.644531 5.3574219 A 15.664 15.664 0 0 0 34 15.400391 L 34 18 A 5 5 0 0 0 44 18 L 44 15.251953 A 5.172 5.172 0 0 1 48.845703 10 A 5 5 0 0 1 54 15 L 54 59 A 5.006 5.006 0 0 0 59 64 A 5.006 5.006 0 0 0 64 59 L 64 37 L 62 37 L 62 42.585938 L 56 48.585938 L 56 42.414062 L 61.707031 36.707031 L 60.292969 35.292969 L 56 39.585938 L 56 33.414062 L 62 27.414062 L 62 31 L 64 31 L 64 15 A 15 15 0 0 0 62.638672 8.7753906 L 62.707031 8.7070312 L 62.5 8.5 A 15 15 0 0 0 48.275391 0.017578125 A 14.607 14.607 0 0 0 48.265625 0.017578125 z M 48.621094 2.0058594 A 13 13 0 0 1 53.873047 2.9550781 L 50.849609 8.2460938 A 7 7 0 0 0 48.785156 8 A 7.184 7.184 0 0 0 47.617188 8.1699219 L 46.3125 2.2929688 A 12.412 12.412 0 0 1 48.369141 2.015625 A 13 13 0 0 1 48.621094 2.0058594 z M 39.826172 3.21875 A 15.452 15.452 0 0 0 38.626953 4.2890625 L 40.033203 5.7109375 A 13.132 13.132 0 0 1 41.074219 4.78125 L 39.826172 3.21875 z M 55.664062 3.8554688 A 13 13 0 0 1 60.183594 8.4023438 L 55.679688 12.90625 A 7 7 0 0 0 52.693359 9.0546875 L 55.664062 3.8554688 z M 37.015625 10.25 L 42.974609 11.574219 A 7.184 7.184 0 0 0 42.074219 14.201172 L 36 15.720703 L 36 15.400391 A 13.66 13.66 0 0 1 37.015625 10.25 z M 61.109375 10.304688 A 13 13 0 0 1 62 15 L 62 15.585938 L 56.292969 21.292969 L 57.707031 22.707031 L 62 18.414062 L 62 24.585938 L 56 30.585938 L 56 15.414062 L 61.109375 10.304688 z M 17.251953 12.015625 A 18 18 0 0 0 18 48 A 18.121 18.121 0 0 0 18.183594 47.998047 A 2.965 2.965 0 0 0 18.042969 49.498047 A 3.1 3.1 0 0 0 19.695312 51.765625 A 1.022 1.022 0 0 0 20.072266 51.865234 L 21.978516 52.007812 A 2.068 2.068 0 0 1 23.898438 53.925781 L 24.039062 55.830078 A 1 1 0 0 0 24.146484 56.210938 A 3.08 3.08 0 0 0 26.900391 57.900391 A 2.951 2.951 0 0 0 29 57.025391 L 30.5 55.525391 A 4.942 4.942 0 0 0 31.814453 53.191406 L 32.865234 48.806641 L 36.306641 45.363281 L 43.291016 52.349609 L 44.705078 50.935547 L 38.279297 44.507812 L 41.1875 43.810547 A 4.935 4.935 0 0 0 43.529297 42.5 L 45.029297 41 A 2.965 2.965 0 0 0 45.863281 38.40625 A 3.1 3.1 0 0 0 44.210938 36.140625 A 1 1 0 0 0 43.832031 36.035156 L 41.927734 35.892578 A 2.07 2.07 0 0 1 40.007812 33.974609 L 39.865234 32.068359 A 1 1 0 0 0 39.759766 31.689453 A 3.1 3.1 0 0 0 37.490234 30.041016 A 2.975 2.975 0 0 0 35.990234 30.183594 A 18.185 18.185 0 0 0 36 30 A 18 18 0 0 0 17.251953 12.015625 z M 17.585938 14.021484 A 10.64 10.64 0 0 1 20.597656 20.345703 A 10 10 0 0 0 15.007812 20.470703 A 12.715 12.715 0 0 0 8.4511719 17.185547 A 16 16 0 0 1 17.585938 14.021484 z M 20.310547 14.189453 A 16.01 16.01 0 0 1 29.005859 18.414062 A 10.639 10.639 0 0 1 26.662109 25.013672 A 10 10 0 0 0 22.621094 21.142578 A 12.716 12.716 0 0 0 20.310547 14.189453 z M 42 16.28125 L 42 18 A 3 3 0 0 1 36 18 L 36 17.78125 L 42 16.28125 z M 6.3984375 18.994141 A 10.639 10.639 0 0 1 13.015625 21.339844 A 10 10 0 0 0 9.1464844 25.376953 A 12.713 12.713 0 0 0 2.1816406 27.695312 A 16 16 0 0 1 6.3984375 18.994141 z M 30.814453 20.458984 A 16.01 16.01 0 0 1 33.974609 29.589844 A 10.64 10.64 0 0 1 27.640625 32.599609 A 10.011 10.011 0 0 0 28 30 A 10 10 0 0 0 27.535156 27 A 12.715 12.715 0 0 0 30.814453 20.458984 z M 18 22 A 8.009 8.009 0 0 1 20.621094 22.453125 A 10.64 10.64 0 0 1 18.802734 27.525391 A 12.715 12.715 0 0 0 16.488281 22.148438 A 8 8 0 0 1 18 22 z M 14.515625 22.808594 A 10.639 10.639 0 0 1 16.818359 27.681641 A 12.713 12.713 0 0 0 11.382812 25.515625 A 8 8 0 0 1 14.515625 22.808594 z M 22.482422 23.388672 A 8.009 8.009 0 0 1 25.1875 26.517578 A 10.639 10.639 0 0 1 20.318359 28.818359 A 12.716 12.716 0 0 0 22.482422 23.388672 z M 10.451172 27.378906 A 10.64 10.64 0 0 1 15.525391 29.197266 A 12.715 12.715 0 0 0 10.152344 31.507812 A 8 8 0 0 1 10.451172 27.378906 z M 8.3554688 27.400391 A 10 10 0 0 0 8.4707031 32.992188 A 12.715 12.715 0 0 0 5.1835938 39.5625 A 16 16 0 0 1 2.0058594 30.429688 A 10.64 10.64 0 0 1 8.3554688 27.400391 z M 25.849609 28.490234 A 8.009 8.009 0 0 1 26 30 A 8 8 0 0 1 25.552734 32.621094 A 10.64 10.64 0 0 1 20.474609 30.802734 A 12.715 12.715 0 0 0 25.849609 28.490234 z M 15.681641 31.181641 A 12.716 12.716 0 0 0 13.517578 36.613281 A 8 8 0 0 1 10.808594 33.486328 A 10.639 10.639 0 0 1 15.681641 31.181641 z M 36.980469 32.001953 A 0.986 0.986 0 0 1 37.177734 32.015625 A 1.075 1.075 0 0 1 37.886719 32.453125 L 38.011719 34.126953 A 4.059 4.059 0 0 0 38.574219 35.912109 L 34.128906 40.357422 L 33.054688 39.285156 L 34.035156 35.185547 A 2.934 2.934 0 0 1 34.814453 33.789062 L 36.314453 32.289062 A 0.986 0.986 0 0 1 36.980469 32.001953 z M 19.181641 32.3125 A 12.963 12.963 0 0 1 19.183594 32.314453 A 12.963 12.963 0 0 0 24.626953 34.472656 A 8 8 0 0 1 21.490234 37.195312 A 10.639 10.639 0 0 1 19.181641 32.3125 z M 17.197266 32.474609 A 12.714 12.714 0 0 0 19.507812 37.847656 A 8 8 0 0 1 15.378906 37.554688 A 10.64 10.64 0 0 1 17.197266 32.474609 z M 33.054688 32.769531 A 4.933 4.933 0 0 0 32.089844 34.71875 L 31.044922 39.087891 L 29.150391 40.982422 A 10.639 10.639 0 0 1 22.976562 38.654297 A 10.011 10.011 0 0 0 26.857422 34.619141 A 12.965 12.965 0 0 0 33.054688 32.769531 z M 62 33 L 62 35 L 64 35 L 64 33 L 62 33 z M 9.34375 34.980469 A 10 10 0 0 0 13.378906 38.859375 A 12.716 12.716 0 0 0 15.707031 45.832031 A 16 16 0 0 1 6.9941406 41.597656 A 10.639 10.639 0 0 1 9.34375 34.980469 z M 39.988281 37.326172 A 4.059 4.059 0 0 0 41.775391 37.890625 L 43.447266 38.015625 A 1.07 1.07 0 0 1 43.884766 38.724609 A 0.986 0.986 0 0 1 43.611328 39.585938 L 42.111328 41.085938 A 2.932 2.932 0 0 1 40.71875 41.865234 L 36.619141 42.847656 L 35.542969 41.771484 L 39.988281 37.326172 z M 20.992188 39.527344 A 12.714 12.714 0 0 0 27.353516 42.777344 L 27.078125 43.052734 L 22.71875 44.097656 A 4.946 4.946 0 0 0 20.376953 45.408203 L 19.886719 45.898438 L 19.884766 45.890625 A 16.319 16.319 0 0 1 18.414062 45.978516 A 10.64 10.64 0 0 1 15.400391 39.644531 A 10 10 0 0 0 18 40 A 10.011 10.011 0 0 0 20.992188 39.527344 z M 31.951172 41.009766 L 34.892578 43.949219 L 33.421875 45.421875 L 31.951172 46.892578 L 29.009766 43.949219 L 29.960938 42.998047 A 12.714 12.714 0 0 0 30 43 L 30 42.958984 L 31.951172 41.009766 z M 27.291016 45.058594 L 28.359375 46.128906 L 23.910156 50.578125 A 4.053 4.053 0 0 0 22.128906 50.019531 L 20.457031 49.894531 A 1.078 1.078 0 0 1 20.019531 49.185547 A 0.99 0.99 0 0 1 20.292969 48.322266 L 21.792969 46.822266 A 2.934 2.934 0 0 1 23.185547 46.042969 L 27.291016 45.058594 z M 62 45.414062 L 62 51.585938 L 56.292969 57.292969 L 57.707031 58.707031 L 62 54.414062 L 62 59 A 3 3 0 0 1 56 59 L 56 51.414062 L 62 45.414062 z M 29.773438 47.542969 L 30.853516 48.621094 L 29.869141 52.724609 A 2.931 2.931 0 0 1 29.089844 54.119141 L 27.589844 55.619141 A 0.993 0.993 0 0 1 26.726562 55.892578 A 1.068 1.068 0 0 1 26.017578 55.453125 L 25.892578 53.78125 A 4.053 4.053 0 0 0 25.326172 51.990234 L 29.773438 47.542969 z M 34.707031 49.648438 L 33.292969 51.0625 L 45.035156 62.800781 A 4.054 4.054 0 0 0 47.919922 64 A 4.08 4.08 0 0 0 50.804688 57.039062 L 49.064453 55.300781 L 47.650391 56.710938 L 49.390625 58.449219 A 2.081 2.081 0 0 1 49.390625 61.390625 A 2.131 2.131 0 0 1 46.449219 61.390625 L 34.707031 49.648438 z M 46.064453 52.294922 L 44.650391 53.708984 L 46.292969 55.351562 L 47.707031 53.9375 L 46.064453 52.294922 z"></path>
</svg>
