<svg fill="#000000" xmlns="http://www.w3.org/2000/svg"  viewBox="0 0 50 50" width="50px" height="50px"><path d="M 7 4 C 5.3550302 4 4 5.3550302 4 7 L 4 10.878906 C 3.9147151 11.214851 3 14.871915 3 17.5 C 3 18.87865 3.2660604 20.198539 3.9960938 21.251953 C 3.9974251 21.253874 3.9986651 21.255894 4 21.257812 L 4 46 L 10.832031 46 A 1.0001 1.0001 0 0 0 11.158203 46 L 24.832031 46 A 1.0001 1.0001 0 0 0 25.158203 46 L 38.832031 46 A 1.0001 1.0001 0 0 0 39.158203 46 L 46 46 L 46 21.257812 C 46.001335 21.255894 46.002575 21.253874 46.003906 21.251953 C 46.73394 20.198539 47 18.87865 47 17.5 C 47 14.871915 46.085285 11.214852 46 10.878906 L 46 7 C 46 5.3550302 44.64497 4 43 4 L 7 4 z M 7 6 L 43 6 C 43.56503 6 44 6.4349698 44 7 L 44 10 L 39.167969 10 A 1.0001 1.0001 0 0 0 38.841797 10 L 32.167969 10 A 1.0001 1.0001 0 0 0 31.841797 10 L 25.167969 10 A 1.0001 1.0001 0 0 0 24.841797 10 L 18.167969 10 A 1.0001 1.0001 0 0 0 17.841797 10 L 11.167969 10 A 1.0001 1.0001 0 0 0 10.984375 9.9863281 A 1.0001 1.0001 0 0 0 10.841797 10 L 6 10 L 6 7 C 6 6.4349698 6.4349698 6 7 6 z M 8 7 A 1 1 0 0 0 8 9 A 1 1 0 0 0 8 7 z M 11 7 A 1 1 0 0 0 11 9 A 1 1 0 0 0 11 7 z M 14 7 A 1 1 0 0 0 14 9 A 1 1 0 0 0 14 7 z M 5.8105469 12 L 10 12 L 10 19.849609 C 9.3593862 20.53482 8.5047333 21 7.5 21 C 6.6486444 21 6.174801 20.746861 5.8007812 20.300781 A 1.0001 1.0001 0 0 0 5.7246094 20.210938 A 1.0001 1.0001 0 0 0 5.7070312 20.191406 C 5.6857041 20.162847 5.6614087 20.141318 5.640625 20.111328 C 5.2419083 19.535993 5 18.60635 5 17.5 C 5 15.648931 5.587322 12.980113 5.8105469 12 z M 12 12 L 17 12 L 17 19.849609 C 16.359386 20.53482 15.504733 21 14.5 21 C 13.495267 21 12.640614 20.53482 12 19.849609 L 12 12 z M 19 12 L 24 12 L 24 19.849609 C 23.359386 20.53482 22.504733 21 21.5 21 C 20.495267 21 19.640614 20.53482 19 19.849609 L 19 12 z M 26 12 L 31 12 L 31 19.849609 C 30.360305 20.534259 29.504733 21 28.5 21 C 27.495267 21 26.640614 20.53482 26 19.849609 L 26 12 z M 33 12 L 38 12 L 38 19.849609 C 37.360305 20.534259 36.504733 21 35.5 21 C 34.495267 21 33.639695 20.534259 33 19.849609 L 33 12 z M 40 12 L 44.189453 12 C 44.412678 12.980113 45 15.648931 45 17.5 C 45 18.524431 44.786713 19.384427 44.439453 19.964844 A 1.0001 1.0001 0 0 0 44.052734 20.472656 C 43.699261 20.814274 43.24134 21 42.5 21 C 41.495267 21 40.639695 20.534259 40 19.849609 L 40 12 z M 11 21.552734 C 11.958563 22.387198 13.126204 23 14.5 23 C 15.873796 23 17.041437 22.387198 18 21.552734 C 18.958563 22.387198 20.126204 23 21.5 23 C 22.873796 23 24.041437 22.387198 25 21.552734 C 25.958563 22.387198 27.126204 23 28.5 23 C 29.873796 23 31.04147 22.38751 32 21.552734 C 32.95853 22.38751 34.126204 23 35.5 23 C 36.873796 23 38.04147 22.38751 39 21.552734 C 39.95853 22.38751 41.126204 23 42.5 23 C 43.03686 23 43.539024 22.908002 44 22.748047 L 44 44 L 40 44 L 40 27 A 1.0001 1.0001 0 0 0 39 26 L 25.167969 26 A 1.0001 1.0001 0 0 0 24.984375 25.986328 A 1.0001 1.0001 0 0 0 24.841797 26 L 11 26 A 1.0001 1.0001 0 0 0 10 27 L 10 44 L 6 44 L 6 22.748047 C 6.4609758 22.908002 6.9631394 23 7.5 23 C 8.8737959 23 10.041437 22.387198 11 21.552734 z M 12 28 L 24 28 L 24 44 L 12 44 L 12 28 z M 26 28 L 38 28 L 38 44 L 26 44 L 26 28 z M 21 35 A 1 1 0 0 0 21 37 A 1 1 0 0 0 21 35 z M 29 35 A 1 1 0 0 0 29 37 A 1 1 0 0 0 29 35 z"/></svg>