<svg xmlns="http://www.w3.org/2000/svg" x="0px" y="0px"
width="64" height="64"
viewBox="0 0 512 512"
>
<path fill="#8b0000" d="M199.039 373.883A46.059 46.059 0 10245.1 419.942 46.112 46.112 0 00199.039 373.883zm0 72.117A26.059 26.059 0 11225.1 419.942 26.088 26.088 0 01199.039 446zM380.316 373.883a46.059 46.059 0 1046.059 46.059A46.112 46.112 0 00380.316 373.883zm0 72.117a26.059 26.059 0 1126.059-26.058A26.088 26.088 0 01380.316 446zM455.132 127.679H141.567l-6.8-40.046A49.869 49.869 0 0085.475 46H56.868a10 10 0 100 20H85.474A29.92 29.92 0 01115.05 90.979l36.21 213.315a49.87 49.87 0 0049.3 41.633H413.729a10 10 0 000-20H200.556a29.92 29.92 0 01-29.576-24.979L167.34 279.5H376.362a59.816 59.816 0 0057.131-41.666l31.161-97.1a10 10 0 00-9.522-13.056zM414.449 231.726A39.879 39.879 0 01376.361 259.5H163.944L144.962 147.678H441.42z"></path>
</svg>
