<svg fill="#000000" xmlns="http://www.w3.org/2000/svg"  viewBox="0 0 50 50" width="50px" height="50px"><path d="M 6.875 2 C 6.371094 2.0625 5.996094 2.492188 6 3 L 6 44 L 5 44 C 3.894531 44 3 44.894531 3 46 C 3 47.105469 3.894531 48 5 48 L 45 48 C 46.105469 48 47 47.105469 47 46 C 47 44.894531 46.105469 44 45 44 L 44 44 L 44 3 C 44.003906 2.652344 43.824219 2.332031 43.535156 2.148438 C 43.242188 1.960938 42.875 1.941406 42.5625 2.09375 L 41 2.875 L 39.4375 2.09375 C 39.160156 1.960938 38.839844 1.960938 38.5625 2.09375 L 37 2.875 L 35.4375 2.09375 C 35.160156 1.960938 34.839844 1.960938 34.5625 2.09375 L 33 2.875 L 31.4375 2.09375 C 31.160156 1.960938 30.839844 1.960938 30.5625 2.09375 L 29 2.875 L 27.4375 2.09375 C 27.160156 1.960938 26.839844 1.960938 26.5625 2.09375 L 25 2.875 L 23.4375 2.09375 C 23.160156 1.960938 22.839844 1.960938 22.5625 2.09375 L 21 2.875 L 19.4375 2.09375 C 19.160156 1.960938 18.839844 1.960938 18.5625 2.09375 L 17 2.875 L 15.4375 2.09375 C 15.160156 1.960938 14.839844 1.960938 14.5625 2.09375 L 13 2.875 L 11.4375 2.09375 C 11.160156 1.960938 10.839844 1.960938 10.5625 2.09375 L 9 2.875 L 7.4375 2.09375 C 7.261719 2.007813 7.066406 1.976563 6.875 2 Z M 11 4.125 L 12.5625 4.90625 C 12.839844 5.039063 13.160156 5.039063 13.4375 4.90625 L 15 4.125 L 16.5625 4.90625 C 16.839844 5.039063 17.160156 5.039063 17.4375 4.90625 L 19 4.125 L 20.5625 4.90625 C 20.839844 5.039063 21.160156 5.039063 21.4375 4.90625 L 23 4.125 L 24.5625 4.90625 C 24.839844 5.039063 25.160156 5.039063 25.4375 4.90625 L 27 4.125 L 28.5625 4.90625 C 28.839844 5.039063 29.160156 5.039063 29.4375 4.90625 L 31 4.125 L 32.5625 4.90625 C 32.839844 5.039063 33.160156 5.039063 33.4375 4.90625 L 35 4.125 L 36.5625 4.90625 C 36.839844 5.039063 37.160156 5.039063 37.4375 4.90625 L 39 4.125 L 40.5625 4.90625 C 40.839844 5.039063 41.160156 5.039063 41.4375 4.90625 L 42 4.625 L 42 46 L 8 46 L 8 4.625 L 8.5625 4.90625 C 8.839844 5.039063 9.160156 5.039063 9.4375 4.90625 Z M 12.71875 11 C 12.167969 11.078125 11.78125 11.589844 11.859375 12.140625 C 11.9375 12.691406 12.449219 13.078125 13 13 L 28 13 C 28.359375 13.003906 28.695313 12.816406 28.878906 12.503906 C 29.058594 12.191406 29.058594 11.808594 28.878906 11.496094 C 28.695313 11.183594 28.359375 10.996094 28 11 L 13 11 C 12.96875 11 12.9375 11 12.90625 11 C 12.875 11 12.84375 11 12.8125 11 C 12.78125 11 12.75 11 12.71875 11 Z M 33.71875 11 C 33.167969 11.078125 32.78125 11.589844 32.859375 12.140625 C 32.9375 12.691406 33.449219 13.078125 34 13 L 37 13 C 37.359375 13.003906 37.695313 12.816406 37.878906 12.503906 C 38.058594 12.191406 38.058594 11.808594 37.878906 11.496094 C 37.695313 11.183594 37.359375 10.996094 37 11 L 34 11 C 33.96875 11 33.9375 11 33.90625 11 C 33.875 11 33.84375 11 33.8125 11 C 33.78125 11 33.75 11 33.71875 11 Z M 12.71875 17 C 12.167969 17.078125 11.78125 17.589844 11.859375 18.140625 C 11.9375 18.691406 12.449219 19.078125 13 19 L 24 19 C 24.359375 19.003906 24.695313 18.816406 24.878906 18.503906 C 25.058594 18.191406 25.058594 17.808594 24.878906 17.496094 C 24.695313 17.183594 24.359375 16.996094 24 17 L 13 17 C 12.96875 17 12.9375 17 12.90625 17 C 12.875 17 12.84375 17 12.8125 17 C 12.78125 17 12.75 17 12.71875 17 Z M 33.71875 17 C 33.167969 17.078125 32.78125 17.589844 32.859375 18.140625 C 32.9375 18.691406 33.449219 19.078125 34 19 L 37 19 C 37.359375 19.003906 37.695313 18.816406 37.878906 18.503906 C 38.058594 18.191406 38.058594 17.808594 37.878906 17.496094 C 37.695313 17.183594 37.359375 16.996094 37 17 L 34 17 C 33.96875 17 33.9375 17 33.90625 17 C 33.875 17 33.84375 17 33.8125 17 C 33.78125 17 33.75 17 33.71875 17 Z M 12.71875 23 C 12.167969 23.078125 11.78125 23.589844 11.859375 24.140625 C 11.9375 24.691406 12.449219 25.078125 13 25 L 28 25 C 28.359375 25.003906 28.695313 24.816406 28.878906 24.503906 C 29.058594 24.191406 29.058594 23.808594 28.878906 23.496094 C 28.695313 23.183594 28.359375 22.996094 28 23 L 13 23 C 12.96875 23 12.9375 23 12.90625 23 C 12.875 23 12.84375 23 12.8125 23 C 12.78125 23 12.75 23 12.71875 23 Z M 33.71875 23 C 33.167969 23.078125 32.78125 23.589844 32.859375 24.140625 C 32.9375 24.691406 33.449219 25.078125 34 25 L 37 25 C 37.359375 25.003906 37.695313 24.816406 37.878906 24.503906 C 38.058594 24.191406 38.058594 23.808594 37.878906 23.496094 C 37.695313 23.183594 37.359375 22.996094 37 23 L 34 23 C 33.96875 23 33.9375 23 33.90625 23 C 33.875 23 33.84375 23 33.8125 23 C 33.78125 23 33.75 23 33.71875 23 Z M 12.71875 29 C 12.167969 29.078125 11.78125 29.589844 11.859375 30.140625 C 11.9375 30.691406 12.449219 31.078125 13 31 L 24 31 C 24.359375 31.003906 24.695313 30.816406 24.878906 30.503906 C 25.058594 30.191406 25.058594 29.808594 24.878906 29.496094 C 24.695313 29.183594 24.359375 28.996094 24 29 L 13 29 C 12.96875 29 12.9375 29 12.90625 29 C 12.875 29 12.84375 29 12.8125 29 C 12.78125 29 12.75 29 12.71875 29 Z M 33.71875 29 C 33.167969 29.078125 32.78125 29.589844 32.859375 30.140625 C 32.9375 30.691406 33.449219 31.078125 34 31 L 37 31 C 37.359375 31.003906 37.695313 30.816406 37.878906 30.503906 C 38.058594 30.191406 38.058594 29.808594 37.878906 29.496094 C 37.695313 29.183594 37.359375 28.996094 37 29 L 34 29 C 33.96875 29 33.9375 29 33.90625 29 C 33.875 29 33.84375 29 33.8125 29 C 33.78125 29 33.75 29 33.71875 29 Z M 13 35 C 12.449219 35 12 35.449219 12 36 C 12 36.550781 12.449219 37 13 37 C 13.550781 37 14 36.550781 14 36 C 14 35.449219 13.550781 35 13 35 Z M 16 35 C 15.449219 35 15 35.449219 15 36 C 15 36.550781 15.449219 37 16 37 C 16.550781 37 17 36.550781 17 36 C 17 35.449219 16.550781 35 16 35 Z M 19 35 C 18.449219 35 18 35.449219 18 36 C 18 36.550781 18.449219 37 19 37 C 19.550781 37 20 36.550781 20 36 C 20 35.449219 19.550781 35 19 35 Z M 22 35 C 21.449219 35 21 35.449219 21 36 C 21 36.550781 21.449219 37 22 37 C 22.550781 37 23 36.550781 23 36 C 23 35.449219 22.550781 35 22 35 Z M 25 35 C 24.449219 35 24 35.449219 24 36 C 24 36.550781 24.449219 37 25 37 C 25.550781 37 26 36.550781 26 36 C 26 35.449219 25.550781 35 25 35 Z M 28 35 C 27.449219 35 27 35.449219 27 36 C 27 36.550781 27.449219 37 28 37 C 28.550781 37 29 36.550781 29 36 C 29 35.449219 28.550781 35 28 35 Z M 31 35 C 30.449219 35 30 35.449219 30 36 C 30 36.550781 30.449219 37 31 37 C 31.550781 37 32 36.550781 32 36 C 32 35.449219 31.550781 35 31 35 Z M 34 35 C 33.449219 35 33 35.449219 33 36 C 33 36.550781 33.449219 37 34 37 C 34.550781 37 35 36.550781 35 36 C 35 35.449219 34.550781 35 34 35 Z M 37 35 C 36.449219 35 36 35.449219 36 36 C 36 36.550781 36.449219 37 37 37 C 37.550781 37 38 36.550781 38 36 C 38 35.449219 37.550781 35 37 35 Z M 30.71875 40 C 30.167969 40.078125 29.78125 40.589844 29.859375 41.140625 C 29.9375 41.691406 30.449219 42.078125 31 42 L 37 42 C 37.359375 42.003906 37.695313 41.816406 37.878906 41.503906 C 38.058594 41.191406 38.058594 40.808594 37.878906 40.496094 C 37.695313 40.183594 37.359375 39.996094 37 40 L 31 40 C 30.96875 40 30.9375 40 30.90625 40 C 30.875 40 30.84375 40 30.8125 40 C 30.78125 40 30.75 40 30.71875 40 Z"/></svg>