<svg xmlns="http://www.w3.org/2000/svg" x="0px" y="0px"
width="50" height="50"
viewBox="0 0 49.949 50.008">
<path d="M 16.970703 0 C 14.340301 0 12.287775 1.6265332 11.427734 3.703125 C 10.567694 5.7797168 10.868721 8.3823925 12.728516 10.242188 C 14.58831 12.101982 17.190986 12.403009 19.267578 11.542969 C 21.34417 10.682928 22.970703 8.6304019 22.970703 6 C 22.970703 2.6981361 20.272567 0 16.970703 0 z M 32.976562 0 C 30.346162 0 28.293634 1.6265332 27.433594 3.703125 C 26.573553 5.7797168 26.87458 8.3823925 28.734375 10.242188 C 30.59417 12.101982 33.194893 12.403009 35.271484 11.542969 C 37.348076 10.682928 38.976562 8.6304019 38.976562 6 C 38.976562 2.6981361 36.278427 0 32.976562 0 z M 16.970703 2 C 19.191687 2 20.970703 3.7790164 20.970703 6 C 20.970703 7.8244321 19.905623 9.113969 18.501953 9.6953125 C 17.098283 10.276656 15.432445 10.117992 14.142578 8.828125 C 12.852711 7.538258 12.694047 5.87242 13.275391 4.46875 C 13.856734 3.06508 15.146271 2 16.970703 2 z M 32.976562 2 C 35.197547 2 36.976562 3.7790164 36.976562 6 C 36.976562 7.8244321 35.909529 9.113969 34.505859 9.6953125 C 33.102189 10.276656 31.438303 10.117992 30.148438 8.828125 C 28.858571 7.538258 28.699907 5.87242 29.28125 4.46875 C 29.862593 3.06508 31.15213 2 32.976562 2 z M 32.791016 13 A 1.0001 1.0001 0 0 0 32.677734 13.005859 L 28.962891 13.005859 A 1.0001 1.0001 0 0 0 28.933594 13.005859 C 27.305335 13.051865 25.84138 13.881131 24.9375 15.160156 C 24.004948 13.816885 22.473077 13.007841 20.833984 13.007812 L 13.974609 13.007812 L 13.974609 15.007812 L 20.833984 15.007812 C 21.838132 15.007831 22.773027 15.508282 23.330078 16.34375 L 23.988281 17.330078 C 23.6964 18.220248 21.035161 26.332453 20.177734 29 L 20.228516 28.871094 C 19.647074 30.075856 20.080466 31.378514 20.974609 32.199219 L 20.974609 46.511719 C 20.974609 47.095052 20.791865 47.405278 20.529297 47.638672 C 20.266729 47.872066 19.877387 48.011719 19.474609 48.011719 C 19.071832 48.011719 18.68249 47.872066 18.419922 47.638672 C 18.157354 47.405278 17.974609 47.095052 17.974609 46.511719 A 1.0001 1.0001 0 0 0 17.974609 46.501953 L 17.974609 34.007812 A 1.0001 1.0001 0 0 0 16.958984 32.994141 A 1.0001 1.0001 0 0 0 15.974609 34.007812 L 15.974609 46.511719 C 15.974609 46.514399 15.974604 46.516853 15.974609 46.519531 C 15.981309 47.308331 15.387703 47.939454 14.603516 47.994141 C 13.684681 48.004581 12.958143 47.282798 12.974609 46.361328 A 1.0001 1.0001 0 0 0 12.974609 46.34375 L 12.974609 20.28125 A 1.0001 1.0001 0 0 0 11.21875 19.626953 L 7.7363281 23.65625 A 1.0001 1.0001 0 0 0 7.7324219 23.660156 C 7.542249 23.882493 7.267183 24.009492 6.9746094 24.009766 C 6.9428554 24.009766 6.9117104 24.008806 6.8808594 24.005859 C 6.5558437 23.974979 6.2691977 23.789439 6.1074219 23.505859 A 1.0001 1.0001 0 0 0 6.1054688 23.505859 L 2.1601562 16.595703 A 1.0001 1.0001 0 0 0 2.1484375 16.576172 C 1.8801778 16.129886 1.9701075 15.577581 2.3554688 15.230469 C 2.8482706 14.839429 3.5281999 14.962408 3.8417969 15.511719 L 6.4316406 20.046875 A 1.0001 1.0001 0 0 0 8.0644531 20.195312 L 11.537109 16.074219 C 12.107637 15.397372 12.946806 15.007685 13.832031 15.007812 L 13.972656 15.007812 L 13.972656 13.007812 L 13.832031 13.007812 C 12.358365 13.007599 10.95759 13.658385 10.007812 14.785156 L 7.4589844 17.810547 L 5.5800781 14.519531 C 4.6688893 12.92345 2.4934614 12.522192 1.0722656 13.6875 A 1.0001 1.0001 0 0 0 1.0488281 13.707031 C -0.069803295 14.681598 -0.33074311 16.335846 0.43359375 17.607422 L 4.3691406 24.496094 C 4.8524285 25.343259 5.7204567 25.903829 6.6914062 25.996094 C 6.7858893 26.005094 6.8796971 26.009766 6.9746094 26.009766 A 1.0001 1.0001 0 0 0 6.9765625 26.009766 C 7.849977 26.008952 8.6811618 25.627385 9.25 24.964844 L 9.2519531 24.962891 L 10.974609 22.96875 L 10.974609 46.326172 C 10.938222 48.362642 12.627761 50.044807 14.664062 50 A 1.0001 1.0001 0 0 0 14.697266 49.998047 C 15.578428 49.948452 16.364368 49.560886 16.949219 48.974609 C 16.998705 49.025157 17.039409 49.086246 17.091797 49.132812 C 17.766729 49.732752 18.627387 50.011719 19.474609 50.011719 C 20.321832 50.011719 21.18249 49.732752 21.857422 49.132812 C 22.532354 48.532874 22.974609 47.595052 22.974609 46.511719 L 22.974609 36.572266 C 23.299702 36.812592 23.686396 36.964205 24.09375 37.003906 A 1.0001 1.0001 0 0 0 24.191406 37.007812 L 27.974609 37.007812 L 27.974609 47.007812 C 27.974609 47.924479 28.354365 48.739253 28.935547 49.255859 C 29.516729 49.772465 30.252387 50.007814 30.974609 50.007812 C 31.68308 50.007813 32.398771 49.765834 32.974609 49.269531 C 33.550447 49.765834 34.266139 50.007814 34.974609 50.007812 C 35.696832 50.007813 36.43249 49.772465 37.013672 49.255859 C 37.594854 48.739253 37.974609 47.924479 37.974609 47.007812 L 37.974609 37.005859 L 41.347656 37.005859 C 42.01063 37.035839 42.643777 36.718288 43.017578 36.169922 A 1.0001 1.0001 0 0 0 43.046875 36.125 C 43.38658 35.565972 43.454701 34.880851 43.232422 34.265625 L 40.021484 24.626953 C 40.447078 24.909893 40.878513 25.186001 41.289062 25.414062 C 41.842773 25.721652 42.232768 26.007812 42.974609 26.007812 C 43.030369 26.007812 43.138637 26.006014 43.271484 25.990234 C 44.23677 25.893854 45.099186 25.33722 45.580078 24.494141 L 49.515625 17.607422 C 49.516323 17.606222 49.514929 17.604716 49.515625 17.603516 C 50.277746 16.332744 50.017508 14.681104 48.900391 13.707031 A 1.0001 1.0001 0 0 0 48.878906 13.6875 C 47.45754 12.521005 45.280254 12.922389 44.369141 14.519531 L 42.488281 17.8125 L 40.134766 15.017578 C 40.07176 14.937143 40.004741 14.861389 39.9375 14.785156 C 39.913044 14.756143 39.884423 14.731504 39.859375 14.703125 C 39.775508 14.612095 39.695141 14.518095 39.605469 14.433594 C 38.720503 13.569253 37.543675 13.064239 36.300781 13.017578 C 36.219745 13.012951 36.140223 13.00086 36.058594 13 A 1.0001 1.0001 0 0 0 36.048828 13 L 32.791016 13 z M 33.091797 15 L 35.974609 15 L 35.974609 15.007812 L 36.113281 15.007812 C 36.279607 15.007788 36.441919 15.035682 36.603516 15.0625 C 36.948507 15.127267 37.279192 15.242017 37.582031 15.410156 C 37.598583 15.419506 37.614482 15.429787 37.630859 15.439453 C 37.77837 15.524782 37.916079 15.62462 38.048828 15.732422 C 38.174314 15.839118 38.300399 15.946325 38.408203 16.074219 L 38.59375 16.294922 C 38.65152 16.371442 38.710373 16.447053 38.761719 16.529297 A 1.0001662 1.0001662 0 0 0 39.035156 16.818359 L 41.880859 20.195312 A 1.0001 1.0001 0 0 0 43.513672 20.046875 L 46.105469 15.511719 A 1.0001 1.0001 0 0 0 46.107422 15.509766 C 46.421014 14.960052 47.10085 14.837049 47.59375 15.228516 C 47.978962 15.57576 48.069171 16.129996 47.800781 16.576172 A 1.0001 1.0001 0 0 0 47.789062 16.595703 L 43.841797 23.501953 A 1.0001 1.0001 0 0 0 43.841797 23.503906 C 43.680122 23.787348 43.39319 23.972865 43.068359 24.003906 A 1.0001 1.0001 0 0 0 43.023438 24.009766 C 43.054297 24.005366 43.036609 24.007812 42.974609 24.007812 C 43.198951 24.007812 42.720602 23.920922 42.261719 23.666016 C 41.802835 23.411104 41.241423 23.048148 40.710938 22.683594 C 39.742614 22.018156 38.957062 21.410938 38.8125 21.298828 A 1.0001 1.0001 0 0 0 38.050781 20.986328 A 1.0001 1.0001 0 0 0 37.142578 22.316406 L 41.34375 34.921875 A 1.0001 1.0001 0 0 0 41.351562 34.945312 C 41.358962 34.965702 41.346503 34.985149 41.345703 35.005859 L 32.791016 35.005859 A 1.0001 1.0001 0 0 0 32.742188 35.007812 L 28.974609 35.007812 L 24.275391 35.007812 C 24.259601 35.005412 24.249205 34.991608 24.234375 34.986328 C 24.235775 34.974318 24.226169 34.962962 24.230469 34.951172 A 1.0001 1.0001 0 0 0 24.240234 34.923828 L 28.439453 22.316406 A 1.0001 1.0001 0 0 0 27.5 20.986328 A 1.0001 1.0001 0 0 0 26.541016 21.683594 L 23.673828 30.296875 A 1.0001 1.0001 0 0 0 23.660156 30.320312 C 23.480819 30.672095 23.136943 30.887797 22.753906 30.96875 C 22.120707 30.91432 21.74259 30.334297 22.029297 29.740234 A 1.0001 1.0001 0 0 0 22.080078 29.611328 C 22.97589 26.824359 26.095703 17.318359 26.095703 17.318359 A 1.0001 1.0001 0 0 0 26.111328 17.269531 C 26.469139 15.959096 27.63237 15.044226 28.990234 15.005859 L 32.978516 15.005859 A 1.0001 1.0001 0 0 0 33.091797 15 z M 29.974609 37.007812 L 31.974609 37.007812 L 31.974609 47.007812 C 31.974609 47.424479 31.854365 47.609705 31.685547 47.759766 C 31.516729 47.909826 31.252387 48.007813 30.974609 48.007812 C 30.696832 48.007812 30.43249 47.909822 30.263672 47.759766 C 30.094854 47.609705 29.974609 47.424479 29.974609 47.007812 L 29.974609 37.007812 z M 33.974609 37.007812 L 35.974609 37.007812 L 35.974609 47.007812 C 35.974609 47.424479 35.854365 47.609705 35.685547 47.759766 C 35.516729 47.909826 35.252387 48.007813 34.974609 48.007812 C 34.696832 48.007812 34.43249 47.909822 34.263672 47.759766 C 34.094854 47.609705 33.974609 47.424479 33.974609 47.007812 L 33.974609 37.007812 z"></path>
</svg>
