<svg fill="#000000" xmlns="http://www.w3.org/2000/svg"  viewBox="0 0 50 50" width="50px" height="50px"><path d="M 9 4 C 6.2504839 4 4 6.2504839 4 9 L 4 44 A 1.0001 1.0001 0 0 0 5 45 L 20.585938 45 L 24.292969 48.707031 A 1.0001 1.0001 0 0 0 25.707031 48.707031 L 29.414062 45 L 45 45 A 1.0001 1.0001 0 0 0 46 44 L 46 9 C 46 6.2504839 43.749516 4 41 4 L 9 4 z M 9 6 L 41 6 C 42.668484 6 44 7.3315161 44 9 L 44 43 L 29 43 A 1.0001 1.0001 0 0 0 28.292969 43.292969 L 25 46.585938 L 21.707031 43.292969 A 1.0001 1.0001 0 0 0 21 43 L 6 43 L 6 9 C 6 7.3315161 7.3315161 6 9 6 z M 25.949219 11 C 22.899482 11 20.614789 12.225517 19.410156 14.066406 C 18.328033 15.72008 18.260294 17.784268 18.90625 19.716797 C 18.617944 20.133774 18.411921 20.648272 18.494141 21.34375 C 18.587481 22.135342 18.800017 22.732418 19.146484 23.181641 C 19.285643 23.362071 19.492731 23.365034 19.667969 23.482422 C 19.790639 24.103375 19.950767 24.723881 20.203125 25.236328 C 20.361318 25.557561 20.531038 25.845772 20.714844 26.097656 C 20.761304 26.161326 20.849997 26.209515 20.896484 26.269531 C 20.901184 26.913826 20.905982 27.485602 20.857422 28.150391 C 20.704265 28.513758 20.386399 28.831394 19.751953 29.175781 C 19.087267 29.536583 18.175692 29.877793 17.228516 30.324219 C 16.28134 30.770644 15.28293 31.333225 14.474609 32.230469 C 13.666289 33.127712 13.094821 34.368936 13.001953 35.941406 A 1.0001 1.0001 0 0 0 14 37 L 36 37 A 1.0001 1.0001 0 0 0 36.998047 35.941406 C 36.904377 34.355348 36.291857 33.101058 35.435547 32.207031 C 34.579237 31.313005 33.525252 30.758579 32.523438 30.314453 C 31.521622 29.870327 30.554994 29.529532 29.847656 29.166016 C 29.171273 28.818407 28.836671 28.494052 28.689453 28.148438 C 28.640933 27.483245 28.647624 26.911068 28.652344 26.265625 C 28.698424 26.204915 28.788208 26.155923 28.833984 26.091797 C 29.014832 25.838453 29.178403 25.547628 29.332031 25.226562 C 29.576991 24.714627 29.73196 24.098188 29.851562 23.482422 C 30.025834 23.365165 30.232641 23.363197 30.371094 23.183594 C 30.717339 22.73444 30.928131 22.134893 31.021484 21.34375 C 31.081194 20.838701 31.028584 20.375093 30.855469 19.96875 C 30.817989 19.88079 30.686963 19.846246 30.636719 19.761719 C 30.80012 19.338992 31.025177 18.951716 31.074219 18.451172 C 31.154109 17.635802 31.102639 16.7276 30.869141 15.833984 C 30.635643 14.940368 30.216462 14.049971 29.5 13.353516 C 28.931235 12.800633 28.125665 12.472413 27.230469 12.330078 L 26.845703 11.554688 A 1.0001 1.0001 0 0 0 25.949219 11 z M 25.386719 13.113281 L 25.650391 13.644531 A 1.0001 1.0001 0 0 0 26.546875 14.199219 C 27.285059 14.199219 27.729681 14.421815 28.105469 14.787109 C 28.481257 15.152404 28.768093 15.70646 28.933594 16.339844 C 29.099095 16.973228 29.140848 17.675479 29.083984 18.255859 C 29.027124 18.83624 28.826455 19.301532 28.777344 19.365234 A 1.0001 1.0001 0 0 0 29.019531 20.808594 C 29.032371 20.851794 29.056546 20.928369 29.035156 21.109375 C 28.970956 21.65342 28.838193 21.890441 28.789062 21.955078 A 1.0001 1.0001 0 0 0 27.996094 22.828125 C 27.947364 23.289214 27.75329 23.895162 27.529297 24.363281 C 27.4173 24.597341 27.296762 24.80125 27.205078 24.929688 C 27.113398 25.058124 27.002393 25.103152 27.173828 25.011719 A 1.0001 1.0001 0 0 0 26.644531 25.894531 C 26.644531 26.761868 26.608532 27.493893 26.701172 28.533203 A 1.0001 1.0001 0 0 0 26.759766 28.789062 C 27.148699 29.851926 28.037213 30.484643 28.933594 30.945312 C 29.829975 31.405984 30.810331 31.742454 31.712891 32.142578 C 32.615451 32.542702 33.422576 32.999136 33.990234 33.591797 C 34.350573 33.968006 34.593515 34.442751 34.769531 35 L 15.220703 35 C 15.389518 34.430236 15.621512 33.945123 15.960938 33.568359 C 16.491991 32.978884 17.237707 32.530763 18.082031 32.132812 C 18.926355 31.734863 19.852842 31.397261 20.707031 30.933594 C 21.56122 30.469927 22.408514 29.82842 22.789062 28.787109 A 1.0001 1.0001 0 0 0 22.845703 28.533203 C 22.938343 27.493893 22.904297 26.761868 22.904297 25.894531 A 1.0001 1.0001 0 0 0 22.373047 25.011719 C 22.539928 25.100519 22.426821 25.049822 22.332031 24.919922 C 22.237241 24.790025 22.113229 24.587408 21.998047 24.353516 C 21.767684 23.885732 21.568955 23.280724 21.521484 22.828125 A 1.0001 1.0001 0 0 0 20.728516 21.955078 C 20.679606 21.890758 20.544682 21.653969 20.480469 21.109375 C 20.458734 20.925539 20.504219 20.824777 20.53125 20.785156 A 1.0001 1.0001 0 0 0 20.861328 19.570312 C 20.173408 18.012075 20.278867 16.390517 21.083984 15.160156 C 21.815579 14.042151 23.248365 13.262902 25.386719 13.113281 z"/></svg>